<?xml version="1.0" encoding="utf-8"?>
<!-- Generator: Adobe Illustrator 26.3.1, SVG Export Plug-In . SVG Version: 6.00 Build 0)  -->
<svg version="1.1" id="Layer_1" xmlns="http://www.w3.org/2000/svg" xmlns:xlink="http://www.w3.org/1999/xlink" x="0px" y="0px"
	 viewBox="0 0 24 24" enable-background="new 0 0 24 24" xml:space="preserve">
<path fill="#FFFFFF" d="M12,0C5.4,0,0,5.4,0,12s5.4,12,12,12s12-5.4,12-12S18.6,0,12,0z M8.8,17.8H6.2V9.3h2.6L8.8,17.8L8.8,17.8z
	 M7.5,8.2c-0.9,0-1.6-0.7-1.6-1.6C5.9,5.7,6.6,5,7.5,5S9,5.7,9,6.6S8.3,8.2,7.5,8.2z M18.7,17.8h-2.6v-4.5c0-1.2-0.5-1.9-1.4-1.9
	c-1.1,0-1.6,0.7-1.6,1.9v4.5h-2.5V9.3H13v1.1c0,0,0.8-1.4,2.6-1.4s3.1,1.1,3.1,3.4L18.7,17.8z"/>
<g>
</g>
<g>
</g>
<g>
</g>
<g>
</g>
<g>
</g>
<g>
</g>
</svg>
